<svg preserveAspectRatio="none" overflow="visible" style="display: block;" width="32" height="32" viewBox="0 0 32 32" fill="none" xmlns="http://www.w3.org/2000/svg">
<g id="assignment_turned_in">
<mask id="mask0_0_93" style="mask-type:alpha" maskUnits="userSpaceOnUse" x="0" y="0" width="32" height="32">
<rect id="Bounding box" width="32" height="32" fill="#D9D9D9"/>
</mask>
<g mask="url(#mask0_0_93)">
<path id="assignment_turned_in_2" d="M14.1332 21.3997L23.5332 11.9997L21.6665 10.1331L14.1332 17.6664L10.3332 13.8664L8.46654 15.7331L14.1332 21.3997ZM6.66654 27.9997C5.9332 27.9997 5.30543 27.7386 4.7832 27.2164C4.26098 26.6942 3.99987 26.0664 3.99987 25.3331V6.66641C3.99987 5.93307 4.26098 5.3053 4.7832 4.78307C5.30543 4.26085 5.9332 3.99974 6.66654 3.99974H12.2665C12.5554 3.19974 13.0388 2.5553 13.7165 2.06641C14.3943 1.57752 15.1554 1.33307 15.9999 1.33307C16.8443 1.33307 17.6054 1.57752 18.2832 2.06641C18.961 2.5553 19.4443 3.19974 19.7332 3.99974H25.3332C26.0665 3.99974 26.6943 4.26085 27.2165 4.78307C27.7388 5.3053 27.9999 5.93307 27.9999 6.66641V25.3331C27.9999 26.0664 27.7388 26.6942 27.2165 27.2164C26.6943 27.7386 26.0665 27.9997 25.3332 27.9997H6.66654ZM6.66654 25.3331H25.3332V6.66641H6.66654V25.3331ZM16.7165 5.38307C16.9054 5.19418 16.9999 4.95529 16.9999 4.66641C16.9999 4.37752 16.9054 4.13863 16.7165 3.94974C16.5276 3.76085 16.2888 3.66641 15.9999 3.66641C15.711 3.66641 15.4721 3.76085 15.2832 3.94974C15.0943 4.13863 14.9999 4.37752 14.9999 4.66641C14.9999 4.95529 15.0943 5.19418 15.2832 5.38307C15.4721 5.57196 15.711 5.66641 15.9999 5.66641C16.2888 5.66641 16.5276 5.57196 16.7165 5.38307Z" fill="white"/>
</g>
</g>
</svg>
