<svg preserveAspectRatio="none" overflow="visible" style="display: block;" width="20.1667" height="17.4167" viewBox="0 0 20.1667 17.4167" fill="none" xmlns="http://www.w3.org/2000/svg">
<path id="Vector" d="M9.9275 5.5L12.8333 8.39667V8.25C12.8333 7.52065 12.5436 6.82118 12.0279 6.30546C11.5122 5.78973 10.8127 5.5 10.0833 5.5H9.9275ZM5.98583 6.23333L7.40667 7.65417C7.36083 7.84667 7.33333 8.03917 7.33333 8.25C7.33333 8.97934 7.62306 9.67882 8.13879 10.1945C8.65451 10.7103 9.35399 11 10.0833 11C10.285 11 10.4867 10.9725 10.6792 10.9267L12.1 12.3475C11.4858 12.65 10.8075 12.8333 10.0833 12.8333C8.86776 12.8333 7.70197 12.3504 6.84243 11.4909C5.98289 10.6314 5.5 9.46558 5.5 8.25C5.5 7.52583 5.68333 6.8475 5.98583 6.23333ZM0.916667 1.16417L3.00667 3.25417L3.41917 3.66667C1.90667 4.85833 0.715 6.41667 0 8.25C1.58583 12.2742 5.5 15.125 10.0833 15.125C11.5042 15.125 12.8608 14.85 14.0983 14.355L14.4925 14.74L17.1692 17.4167L18.3333 16.2525L2.08083 0M10.0833 3.66667C11.2989 3.66667 12.4647 4.14955 13.3242 5.00909C14.1838 5.86864 14.6667 7.03442 14.6667 8.25C14.6667 8.83667 14.5475 9.405 14.3367 9.91833L17.0225 12.6042C18.3975 11.4583 19.4975 9.955 20.1667 8.25C18.5808 4.22583 14.6667 1.375 10.0833 1.375C8.8 1.375 7.57167 1.60417 6.41667 2.01667L8.40583 3.9875C8.92833 3.78583 9.4875 3.66667 10.0833 3.66667Z" fill="black"/>
</svg>
