<svg preserveAspectRatio="none" overflow="visible" style="display: block;" width="30" height="30" viewBox="0 0 30 30" fill="none" xmlns="http://www.w3.org/2000/svg">
<g id="person_edit">
<mask id="mask0_0_166" style="mask-type:alpha" maskUnits="userSpaceOnUse" x="0" y="0" width="30" height="30">
<rect id="Bounding box" width="30" height="30" fill="#D9D9D9"/>
</mask>
<g mask="url(#mask0_0_166)">
<path id="person_edit_2" d="M5 25V21.5C5 20.7917 5.18229 20.1406 5.54688 19.5469C5.91146 18.9531 6.39583 18.5 7 18.1875C8.29167 17.5417 9.60417 17.0573 10.9375 16.7344C12.2708 16.4115 13.625 16.25 15 16.25C15.7708 16.25 16.5312 16.2969 17.2812 16.3906C18.0312 16.4844 18.7812 16.6354 19.5312 16.8438L17.4375 18.9688C17.0208 18.9063 16.6146 18.8542 16.2188 18.8125C15.8229 18.7708 15.4167 18.75 15 18.75C13.8333 18.75 12.6771 18.8906 11.5312 19.1719C10.3854 19.4531 9.25 19.875 8.125 20.4375C7.9375 20.5417 7.78646 20.6875 7.67188 20.875C7.55729 21.0625 7.5 21.2708 7.5 21.5V22.5H15V25H5ZM17.5 26.25V22.4063L24.4063 15.5313C24.5938 15.3438 24.8021 15.2083 25.0312 15.125C25.2604 15.0417 25.4896 15 25.7188 15C25.9688 15 26.2083 15.0469 26.4375 15.1406C26.6667 15.2344 26.875 15.375 27.0625 15.5625L28.2188 16.7188C28.3854 16.9063 28.5156 17.1146 28.6094 17.3438C28.7031 17.5729 28.75 17.8021 28.75 18.0313C28.75 18.2604 28.7083 18.4948 28.625 18.7344C28.5417 18.974 28.4063 19.1875 28.2188 19.375L21.3437 26.25H17.5ZM19.375 24.375H20.5625L24.3438 20.5625L23.7813 19.9688L23.1875 19.4063L19.375 23.1875V24.375ZM23.7813 19.9688L23.1875 19.4063L24.3438 20.5625L23.7813 19.9688ZM11.4688 13.5313C10.4896 12.5521 10 11.375 10 10C10 8.625 10.4896 7.44792 11.4688 6.46875C12.4479 5.48958 13.625 5 15 5C16.375 5 17.5521 5.48958 18.5312 6.46875C19.5104 7.44792 20 8.625 20 10C20 11.375 19.5104 12.5521 18.5312 13.5313C17.5521 14.5104 16.375 15 15 15C13.625 15 12.4479 14.5104 11.4688 13.5313ZM16.7656 11.7656C17.2552 11.276 17.5 10.6875 17.5 10C17.5 9.3125 17.2552 8.72396 16.7656 8.23438C16.276 7.74479 15.6875 7.5 15 7.5C14.3125 7.5 13.724 7.74479 13.2344 8.23438C12.7448 8.72396 12.5 9.3125 12.5 10C12.5 10.6875 12.7448 11.276 13.2344 11.7656C13.724 12.2552 14.3125 12.5 15 12.5C15.6875 12.5 16.276 12.2552 16.7656 11.7656Z" fill="#1C1B1F" fill-opacity="0.68"/>
</g>
</g>
</svg>
